<svg version="1.0" xmlns="http://www.w3.org/2000/svg" width="150" height="150" viewBox="0 0 100 100" preserveAspectRatio="xMidYMid meet">
  <g transform="translate(0.000000,100.000000) scale(0.100000,-0.100000)" fill="none" stroke="#6e7d5a" stroke-width="6" stroke-linecap="round">
    <path d="M267 887 c-48 -15 -102 -59 -124 -100 -14 -25 -17 -54 -17 -127 1 -83 7 -110 43 -217 22 -67 41 -131 41 -141 0 -41 42 -154 68 -182 40 -44 82 -49 121 -13 25 22 38 48 60 123 17 62 32 95 41 95 9 0 24 -33 41 -95 22 -75 35 -101 60 -123 39 -36 81 -31 121 13 26 28 68 141 68 182 0 10 18 72 39 136 70 209 64 334 -20 405 -68 59 -162 70 -270 32 -34 -12 -45 -12 -81 1 -60 21 -146 26 -191 11z m174 -52 c24 -8 61 -31 82 -50 21 -20 43 -33 48 -30 15 10 10 34 -11 55 -26 26 -13 33 79 37 59 3 84 0 111 -14 93 -48 104 -142 41 -343 -22 -69 -47 -156 -55 -193 -20 -87 -48 -129 -85 -125 -31 4 -50 38 -81 145 -25 89 -54 116 -95 89 -18 -12 -30 -36 -45 -89 -31 -107 -50 -141 -81 -145 -36 4 -65 37 -85 125 -9 37 -34 124 -55 193 -63 200 -51 296 41 342 43 22 131 23 191 3z">
      <animate attributeName="stroke-dasharray" from="0,1000" to="1000,0" dur="3s" fill="freeze" />
    </path>
  </g>
</svg>